<svg xmlns="http://www.w3.org/2000/svg" version="1.2" baseProfile="tiny-ps" viewBox="0 0 887 887"><title>Bella Petite</title><rect width="887" height="887" fill="#f8f4ef"/><path fill="#a97e8d" d="M477 184.6c-7.6.6-21.1 2.5-28.5 3.9-3.8.8-8.3 1.6-10 1.9-5.4 1-18.1 4.5-29.2 8.1-32.3 10.6-63.6 27.6-90.3 49.1-12.4 10-27.2 24.1-36 34.4-3 3.6-6.1 7.1-6.8 7.8-2.8 3.1-14.3 21.3-17.5 27.9-3.5 7.2-7.4 17.8-9.8 26.8-.9 3.2-1.4 10.3-1.4 19.5 0 13.1.3 15.2 2.8 22.5 10.1 29.5 35 51.9 77.1 69.4 2.3.9 1.4-.4-4.4-6.6-25.3-27.4-38.5-64.1-36.6-102.3.5-10.9 3-27.3 5.1-33.5 9.6-28.1 20.6-46.4 39.8-65.9 22.9-23.2 43.1-35.2 77.2-45.6 3.6-1.1 12-2.7 23.5-4.6 11.6-1.8 42.9-1.8 54.5.1 5 .8 9.3 1.5 9.8 1.5 1.5 0 .6 1.9-1.2 2.5-1 .3-5.6 3.1-10.2 6.1-42.4 28.4-72.2 76.3-94.4 151.9-4.3 14.8-5.3 18.3-12.1 44-10.9 41.6-17.2 62.1-25.9 84.5-7.9 20.4-16.3 34.8-25.6 43.6-10.9 10.4-19.5 13.9-32.8 13.2-8.5-.5-11.2-1.2-32.6-8.8-7.6-2.7-10.6-3.2-18.8-3.4l-9.9-.1-2.9 3.3c-5.2 5.8-3 13.5 5.6 19.3 5.9 4.1 11.8 5.4 22.5 5.2 10.6-.2 16-1.6 42.8-10.7 9-3.1 16.8-5.6 17.4-5.6 2.3 0 19.7-9.6 26.3-14.5 14-10.6 29.2-28.5 39.8-47 5.7-10 15.2-30.3 17.6-37.6 1.4-4.2 4.3-7.7 7.8-9 2.3-.9 26.3-1.3 26.3-.5 0 .2-1.5 3.7-3.4 7.8-6.5 14-12.5 29.6-17.6 46.3-4.6 14.8-8.1 26.6-10 34-2.1 7.7-5.2 19.6-11.9 45-1.7 6.6-3.5 13.1-4 14.5s-1.7 5.2-2.6 8.5c-4.6 15.8-12 37.1-17.4 49.5-6.8 15.8-12 23.9-21.1 33.1-11.9 12-16.9 14.3-31 14.4-10.9 0-13.8-.7-30.1-6.7-22.2-8.3-36.8-7.4-39.3 2.4-1.3 5.1 1.6 10.4 7.8 14.5l4.8 3.3H278c19.3 0 17.1.4 41-7.8 6.3-2.1 14.2-4.8 17.5-5.8 6.7-2.1 16.3-6.9 24.5-12.2 12.3-8 33.4-31.7 42.4-47.7 6.7-11.9 15.4-30.5 20.1-43 .6-1.8 1-1.5 2.6 2 1 2.2 1.9 4.7 1.9 5.6 0 2 10.1 18 15.4 24.4 24.7 29.9 55.1 44.5 93.1 44.5 34.5 0 65-12.5 89-36.5 13.7-13.7 22.7-28.1 28.5-45.5 4.9-14.4 6.2-22.8 6.3-38.5 0-12.5-1-22-3.5-32.5-9.3-39.6-40.3-72.6-84.3-89.8-6.8-2.7-22.8-7.2-30-8.4-1.5-.3-.5-1.2 4-3.8 13.6-7.7 25.7-17.2 37.1-29 13.2-13.7 18.6-21.1 25.7-35.5 12.9-26 16.1-50.7 10.1-78-4.3-19.6-13.2-36.3-26.6-49.8-15.1-15.2-29.6-22.1-60.8-28.7-5.3-1.1-45.9-2.2-55-1.4m34.2 18.8c17.1 6.2 27.2 12.6 38.8 24.4 18.7 19.1 27 41.2 27 72.4 0 29.5-6.9 52.2-22.9 74.8-11.3 16.1-31.8 32.7-52.2 42.3-9.9 4.7-26 10.1-28.3 9.5-1.1-.2-.3-3.4 3.5-13.3 13.2-34.5 27.1-56.1 43.4-67.2 4.1-2.8 4.5-3.3 2.1-2.7-4.4 1-16.5 7.2-22.1 11.2-22.3 16-42 39.5-58.4 69.4l-4.3 7.8h-14.9c-13.4 0-14.9-.2-14.9-1.7 0-1 1.5-6.2 3.4-11.8 4.2-12.4 7.8-23.8 10.6-33.5 3.4-11.9 3.8-13.3 4.9-17 .5-1.9 1.9-6.9 3.1-11s2.8-9.8 3.5-12.5c16.6-61.7 30.1-97.2 45.6-120 7.1-10.4 20.4-23.5 23.9-23.5.8 0 4.5 1.1 8.2 2.4m30.3 214.3c25.2 9.6 39.5 23.1 52 48.8 4.9 10.2 7.6 17.9 10 28 .9 3.8 1.8 7.9 2.1 9 5.9 24 3.7 65.7-4.8 88-11.1 29.1-27.6 46.4-52.4 54.7-6.2 2.1-8.7 2.3-25.4 2.3-16.5 0-19.3-.3-26-2.4-16.7-5.1-33.6-15.4-44-26.7-9.7-10.4-19.5-26.8-23.5-39.2l-1.8-5.3 4.3-13.2c8.6-26.5 9.6-29.8 18.5-61.7 4.2-15.1 8.4-30.2 9.4-33.5s2.6-8.7 3.6-12c.9-3.3 2.9-9.6 4.4-14 3-9.1 1.6-8.2 18.6-11.6 11-2.2 40.2-11.2 42-13 1.6-1.6 5.7-1 13 1.8"/></svg>